<svg width="25" height="25" viewBox="0 0 25 25" fill="none" xmlns="http://www.w3.org/2000/svg">
<g clip-path="url(#clip0_4111_350)">
<path d="M21.3663 0.0446777H3.63368C1.65156 0.0446777 0.0447388 1.6515 0.0447388 3.63362V21.3663C0.0447388 23.3484 1.65156 24.9552 3.63368 24.9552H21.3663C23.3484 24.9552 24.9553 23.3484 24.9553 21.3663V3.63362C24.9553 1.6515 23.3484 0.0446777 21.3663 0.0446777Z" stroke="#048C80" stroke-miterlimit="10"/>
<path d="M13.2364 19.4417C13.7428 18.0342 14.5598 16.7099 15.6863 15.5772L15.7069 15.5566C16.8352 14.4283 18.1532 13.6095 19.5553 13.0986C20.4286 12.781 21.3341 12.5823 22.2459 12.5045C21.3368 12.4544 20.434 12.2835 19.5633 11.9936C18.1022 11.5086 16.7332 10.6863 15.5735 9.52669C14.4148 8.36796 13.5916 6.99716 13.1066 5.53689C12.7953 4.60096 12.6226 3.62744 12.5877 2.64856L12.5501 2.68614C12.483 3.65787 12.2799 4.62243 11.9417 5.55031C11.4325 6.94616 10.6156 8.25969 9.49355 9.38532L9.48549 9.39337C8.36434 10.5145 7.05439 11.3315 5.66123 11.8424C4.72708 12.1851 3.75625 12.39 2.77826 12.458L2.76663 12.4696C3.74373 12.5045 4.71456 12.6772 5.6487 12.9868C7.11076 13.4726 8.48335 14.2949 9.64387 15.4564C10.8053 16.6178 11.6267 17.9886 12.1126 19.4515C12.423 20.3857 12.5957 21.3565 12.6306 22.3336L12.6369 22.3273C12.6986 21.3493 12.8982 20.3767 13.2346 19.4408L13.2364 19.4417Z" fill="url(#paint0_linear_4111_350)"/>
</g>
<defs>
<linearGradient id="paint0_linear_4111_350" x1="22.2459" y1="2.64856" x2="-5.63695" y2="22.6462" gradientUnits="userSpaceOnUse">
<stop stop-color="#AAD9D1"/>
<stop offset="1" stop-color="#017373"/>
</linearGradient>
<clipPath id="clip0_4111_350">
<rect width="25" height="25" fill="white"/>
</clipPath>
</defs>
</svg>
