<svg width="21" height="20" viewBox="0 0 21 20" fill="none" xmlns="http://www.w3.org/2000/svg">
<path d="M17.4093 1.66662H3.29263C3.13394 1.66442 2.97638 1.69349 2.82893 1.75219C2.68149 1.81089 2.54705 1.89805 2.43329 2.00871C2.31954 2.11937 2.22869 2.25136 2.16595 2.39713C2.10321 2.5429 2.0698 2.6996 2.06763 2.85829V17.1416C2.0698 17.3003 2.10321 17.457 2.16595 17.6028C2.22869 17.7486 2.31954 17.8805 2.43329 17.9912C2.54705 18.1019 2.68149 18.189 2.82893 18.2477C2.97638 18.3064 3.13394 18.3355 3.29263 18.3333H17.4093C17.568 18.3355 17.7255 18.3064 17.873 18.2477C18.0204 18.189 18.1549 18.1019 18.2686 17.9912C18.3824 17.8805 18.4732 17.7486 18.536 17.6028C18.5987 17.457 18.6321 17.3003 18.6343 17.1416V2.85829C18.6321 2.6996 18.5987 2.5429 18.536 2.39713C18.4732 2.25136 18.3824 2.11937 18.2686 2.00871C18.1549 1.89805 18.0204 1.81089 17.873 1.75219C17.7255 1.69349 17.568 1.66442 17.4093 1.66662ZM7.09263 15.6166H4.59263V8.11662H7.09263V15.6166ZM5.84263 7.06662C5.49785 7.06662 5.16719 6.92966 4.92339 6.68586C4.67959 6.44206 4.54263 6.1114 4.54263 5.76662C4.54263 5.42184 4.67959 5.09118 4.92339 4.84738C5.16719 4.60358 5.49785 4.46662 5.84263 4.46662C6.02571 4.44586 6.21111 4.464 6.38669 4.51986C6.56227 4.57571 6.72408 4.66803 6.86151 4.79076C6.99894 4.91348 7.1089 5.06385 7.18419 5.23202C7.25947 5.40019 7.29839 5.58237 7.29839 5.76662C7.29839 5.95087 7.25947 6.13305 7.18419 6.30122C7.1089 6.46939 6.99894 6.61976 6.86151 6.74249C6.72408 6.86521 6.56227 6.95753 6.38669 7.01338C6.21111 7.06924 6.02571 7.08738 5.84263 7.06662ZM16.1093 15.6166H13.6093V11.5916C13.6093 10.5833 13.251 9.92495 12.3426 9.92495C12.0615 9.92701 11.7878 10.0152 11.5583 10.1776C11.3289 10.34 11.1547 10.5688 11.0593 10.8333C10.9941 11.0292 10.9658 11.2354 10.976 11.4416V15.6083H8.47596C8.47596 15.6083 8.47596 8.79162 8.47596 8.10829H10.976V9.16662C11.2031 8.77254 11.5334 8.44789 11.9313 8.22762C12.3293 8.00736 12.7798 7.89983 13.2343 7.91662C14.901 7.91662 16.1093 8.99162 16.1093 11.3V15.6166Z" fill="#EFECE6"/>
</svg>
