<svg width="26" height="25" viewBox="0 0 26 25" fill="none" xmlns="http://www.w3.org/2000/svg">
<g clip-path="url(#clip0_4111_383)">
<path d="M21.6997 0.0446777H3.96705C1.98494 0.0446777 0.378113 1.6515 0.378113 3.63362V21.3663C0.378113 23.3484 1.98494 24.9552 3.96705 24.9552H21.6997C23.6818 24.9552 25.2886 23.3484 25.2886 21.3663V3.63362C25.2886 1.6515 23.6818 0.0446777 21.6997 0.0446777Z" stroke="#048C80" stroke-miterlimit="10"/>
<path d="M21.8706 7.60826V12.6467C17.1918 12.6011 13.3792 8.93521 13.1018 4.31459V3.46277H17.8853C17.8844 3.48603 17.8844 3.5093 17.8844 3.53256C17.8844 5.75429 19.6605 7.56084 21.8706 7.60826Z" fill="url(#paint0_linear_4111_383)"/>
<path d="M12.386 3.81978C12.386 8.62651 8.56619 12.5394 3.79614 12.6906V7.64673C5.91407 7.49999 7.58641 5.7355 7.58641 3.57998C7.58641 3.54061 7.58551 3.50214 7.58462 3.46277H12.3779C12.3833 3.58088 12.386 3.69988 12.386 3.81978Z" fill="url(#paint1_linear_4111_383)"/>
<path d="M12.3251 21.5372H7.52556C7.28755 19.6286 5.73065 18.1299 3.79614 17.9823V13.4171C8.30223 13.5728 11.9538 17.0884 12.3251 21.5372Z" fill="url(#paint2_linear_4111_383)"/>
<path d="M21.8706 13.4421V18.0019C19.8502 18.0538 18.1966 19.5749 17.9372 21.5372H13.1358C13.5277 17.0356 17.2804 13.4958 21.8706 13.4421Z" fill="url(#paint3_linear_4111_383)"/>
</g>
<defs>
<linearGradient id="paint0_linear_4111_383" x1="21.8706" y1="3.46277" x2="9.01759" y2="12.3572" gradientUnits="userSpaceOnUse">
<stop stop-color="#AAD9D1"/>
<stop offset="1" stop-color="#017373"/>
</linearGradient>
<linearGradient id="paint1_linear_4111_383" x1="12.386" y1="3.46277" x2="-0.409811" y2="12.0957" gradientUnits="userSpaceOnUse">
<stop stop-color="#AAD9D1"/>
<stop offset="1" stop-color="#017373"/>
</linearGradient>
<linearGradient id="paint2_linear_4111_383" x1="12.3251" y1="13.4171" x2="0.620302" y2="22.3277" gradientUnits="userSpaceOnUse">
<stop stop-color="#AAD9D1"/>
<stop offset="1" stop-color="#017373"/>
</linearGradient>
<linearGradient id="paint3_linear_4111_383" x1="21.8706" y1="13.4421" x2="10.1219" y2="22.6303" gradientUnits="userSpaceOnUse">
<stop stop-color="#AAD9D1"/>
<stop offset="1" stop-color="#017373"/>
</linearGradient>
<clipPath id="clip0_4111_383">
<rect width="25" height="25" fill="white" transform="translate(0.333374)"/>
</clipPath>
</defs>
</svg>
