<svg width="21" height="20" viewBox="0 0 21 20" fill="none" xmlns="http://www.w3.org/2000/svg">
<path d="M18.6845 4.83326C18.0581 5.10501 17.3957 5.28465 16.7178 5.3666C17.433 4.93936 17.9689 4.26725 18.2262 3.47493C17.5541 3.87498 16.8185 4.15684 16.0512 4.30826C15.5383 3.75207 14.8553 3.38184 14.1093 3.25564C13.3634 3.12944 12.5966 3.2544 11.9293 3.61092C11.262 3.96745 10.7319 4.53537 10.4222 5.22563C10.1124 5.91588 10.0406 6.68942 10.2178 7.42493C8.85901 7.3562 7.52986 7.00239 6.3167 6.38648C5.10355 5.77057 4.03353 4.90634 3.17616 3.84993C2.87544 4.37507 2.71742 4.96978 2.71782 5.57493C2.71676 6.13692 2.85467 6.69044 3.11928 7.18623C3.3839 7.68202 3.767 8.10469 4.23449 8.4166C3.69114 8.40181 3.15939 8.25601 2.68449 7.9916V8.03326C2.68856 8.82067 2.96448 9.58251 3.46558 10.1899C3.96668 10.7973 4.6622 11.213 5.43449 11.3666C5.1372 11.4571 4.82855 11.5048 4.51782 11.5083C4.30273 11.5058 4.08817 11.4862 3.87616 11.4499C4.09608 12.1273 4.52167 12.7192 5.09372 13.1434C5.66576 13.5676 6.3558 13.8029 7.06782 13.8166C5.86549 14.7627 4.38106 15.279 2.85116 15.2833C2.5726 15.2842 2.29427 15.2675 2.01782 15.2333C3.57985 16.2418 5.40017 16.7772 7.25949 16.7749C8.54257 16.7883 9.81543 16.5458 11.0038 16.0617C12.1921 15.5775 13.272 14.8615 14.1805 13.9553C15.089 13.0492 15.8078 11.9711 16.295 10.784C16.7821 9.59695 17.0279 8.3247 17.0178 7.0416C17.0178 6.89993 17.0178 6.74993 17.0178 6.59993C17.6717 6.11227 18.2357 5.51445 18.6845 4.83326Z" fill="#EFECE6"/>
</svg>
