<svg width="21" height="20" viewBox="0 0 21 20" fill="none" xmlns="http://www.w3.org/2000/svg">
<path d="M19.5177 8.09165C19.5589 6.89886 19.298 5.715 18.7593 4.64999C18.3939 4.21299 17.8866 3.91808 17.326 3.81665C15.0073 3.60626 12.679 3.52002 10.351 3.55832C8.03155 3.51829 5.71161 3.60174 3.40102 3.80832C2.9442 3.89142 2.52145 4.10569 2.18435 4.42499C1.43435 5.11665 1.35102 6.29999 1.26768 7.29999C1.14678 9.09796 1.14678 10.902 1.26768 12.7C1.29179 13.2628 1.37559 13.8215 1.51768 14.3667C1.61816 14.7875 1.82145 15.1769 2.10935 15.5C2.44874 15.8362 2.88134 16.0627 3.35102 16.15C5.14761 16.3718 6.95786 16.4637 8.76768 16.425C11.6843 16.4667 14.2427 16.425 17.2677 16.1917C17.7489 16.1097 18.1937 15.8829 18.5427 15.5417C18.776 15.3082 18.9502 15.0226 19.051 14.7083C19.349 13.7938 19.4954 12.8367 19.4843 11.875C19.5177 11.4083 19.5177 8.59165 19.5177 8.09165ZM8.46768 12.375V7.21665L13.401 9.80832C12.0177 10.575 10.1927 11.4417 8.46768 12.375Z" fill="#EFECE6"/>
</svg>
