<svg width="136" height="48" viewBox="0 0 136 48" fill="none" xmlns="http://www.w3.org/2000/svg">
<g clip-path="url(#clip0_4111_198)">
<path d="M32.8091 32C37.1773 32 40.7182 28.4184 40.7182 24V18.4C40.7182 17.7635 40.4683 17.153 40.0233 16.7029C39.5783 16.2529 38.9748 16 38.3455 16H33.2046V19.5096C33.2046 20.3104 33.2528 21.14 33.6681 21.8216C33.9653 22.3101 34.363 22.7282 34.8341 23.0475C35.3051 23.3669 35.8386 23.58 36.3983 23.6724L36.5498 23.6972C36.6122 23.7188 36.6664 23.7596 36.7048 23.8139C36.7432 23.8682 36.7638 23.9333 36.7638 24C36.7638 24.0667 36.7432 24.1318 36.7048 24.1861C36.6664 24.2404 36.6122 24.2812 36.5498 24.3028L36.3983 24.3276C35.5806 24.4627 34.8254 24.8542 34.2396 25.4468C33.6537 26.0395 33.2666 26.8033 33.133 27.6304L33.1085 27.7836C33.0872 27.8468 33.0468 27.9016 32.9931 27.9404C32.9395 27.9792 32.8751 28.0001 32.8091 28.0001C32.7432 28.0001 32.6788 27.9792 32.6251 27.9404C32.5715 27.9016 32.5311 27.8468 32.5098 27.7836L32.4853 27.6304C32.3939 27.0643 32.1832 26.5247 31.8675 26.0482C31.5517 25.5717 31.1384 25.1695 30.6555 24.8688C29.9816 24.4488 29.1615 24.4 28.3698 24.4H24.9095C25.1164 28.6324 28.5738 32 32.8091 32Z" fill="#AAD9D1"/>
<path d="M24.9 23.6H28.3697C29.1614 23.6 29.9816 23.5512 30.6555 23.1312C31.1822 22.8029 31.6256 22.3544 31.9502 21.8216C32.3654 21.14 32.4137 20.3104 32.4137 19.5096V16H27.2728C26.6435 16 26.04 16.2529 25.595 16.7029C25.15 17.153 24.9 17.7635 24.9 18.4V23.6ZM43.2709 16.8C43.2709 17.0122 43.1875 17.2157 43.0392 17.3657C42.8909 17.5157 42.6897 17.6 42.48 17.6C42.2702 17.6 42.069 17.5157 41.9207 17.3657C41.7724 17.2157 41.689 17.0122 41.689 16.8C41.689 16.5878 41.7724 16.3843 41.9207 16.2343C42.069 16.0843 42.2702 16 42.48 16C42.6897 16 42.8909 16.0843 43.0392 16.2343C43.1875 16.3843 43.2709 16.5878 43.2709 16.8ZM108.622 20.8416C110.833 20.8416 111.9 22.4036 111.9 24.2128V27.6108H109.586V24.616C109.586 23.796 109.29 23.1192 108.442 23.1192C107.594 23.1192 107.311 23.796 107.311 24.616V27.6104H104.997V24.616C104.997 23.796 104.715 23.1192 103.866 23.1192C103.018 23.1192 102.722 23.796 102.722 24.616V27.6104H100.409V24.2124C100.409 22.4032 101.475 20.8412 103.686 20.8412C104.895 20.8412 105.769 21.3228 106.167 22.1168C106.591 21.3228 107.517 20.8408 108.622 20.8408V20.8416ZM96.2507 25.528C96.9961 25.528 97.3176 24.838 97.3176 24.0176V21.1016H99.6311V24.304C99.6311 26.2176 98.5258 27.806 96.2507 27.806C93.9753 27.806 92.87 26.218 92.87 24.304V21.1016H95.1838V24.0176C95.1838 24.8376 95.5049 25.528 96.2507 25.528ZM89.4679 27.8188C88.0154 27.8188 87.0769 27.3112 86.5241 26.322L88.1953 25.3716C88.4266 25.788 88.7734 25.9964 89.352 25.9964C89.8277 25.9964 90.046 25.8272 90.046 25.6188C90.046 24.8248 86.6526 25.632 86.6526 23.1068C86.6526 21.8828 87.6808 20.8936 89.4291 20.8936C90.9587 20.8936 91.7943 21.6484 92.1672 22.3776L90.496 23.3408C90.3549 22.9504 89.9175 22.716 89.4805 22.716C89.1464 22.716 88.9664 22.8592 88.9664 23.0544C88.9664 23.8616 92.3598 23.1196 92.3598 25.5668C92.3598 26.9336 91.0358 27.8188 89.4679 27.8188ZM81.384 30.6048H79.0702V24.3432C79.0702 22.3512 80.5484 20.9064 82.6052 20.9064C84.6105 20.9064 86.1401 22.4556 86.1401 24.3432C86.1401 26.426 84.7774 27.806 82.7337 27.806C82.2579 27.806 81.7826 27.6628 81.384 27.4412V30.6048ZM82.6052 25.606C83.3379 25.606 83.8263 25.0332 83.8263 24.356C83.8263 23.6664 83.3379 23.1064 82.6052 23.1064C81.8724 23.1064 81.384 23.6664 81.384 24.3564C81.384 25.0332 81.8724 25.606 82.6052 25.606ZM76.7524 20.412C75.9939 20.412 75.3644 19.774 75.3644 19.006C75.3644 18.238 75.9939 17.6 76.7524 17.6C77.5109 17.6 78.1409 18.238 78.1409 19.006C78.1409 19.774 77.5109 20.412 76.7524 20.412ZM75.5957 21.1016H77.9095V27.6108H75.5957V21.1016ZM71.1563 27.806C69.151 27.806 67.6214 26.244 67.6214 24.3432C67.6214 22.4556 69.151 20.8936 71.1563 20.8936C73.1617 20.8936 74.6913 22.4556 74.6913 24.3432C74.6913 26.244 73.1617 27.806 71.1563 27.806ZM71.1563 25.606C71.8891 25.606 72.3775 25.0332 72.3775 24.356C72.3775 23.6664 71.8891 23.0936 71.1563 23.0936C70.4236 23.0936 69.9352 23.6664 69.9352 24.356C69.9352 25.0332 70.4236 25.606 71.1563 25.606ZM63.2524 30.8C61.6587 30.8 60.5016 30.084 59.9104 28.808L61.8256 27.7668C62.0312 28.2096 62.4168 28.6652 63.2136 28.6652C64.0496 28.6652 64.6021 28.1312 64.6665 27.194C64.3581 27.4676 63.8693 27.6756 63.1369 27.6756C61.3499 27.6756 59.91 26.2828 59.91 24.33C59.91 22.4428 61.44 20.9064 63.4454 20.9064C65.5021 20.9064 66.9803 22.3516 66.9803 24.3432V26.9208C66.9803 29.264 65.3732 30.8 63.2524 30.8ZM63.4066 25.476C64.1006 25.476 64.6278 24.994 64.6278 24.278C64.6278 23.5752 64.101 23.1064 63.4066 23.1064C62.7253 23.1064 62.1855 23.5752 62.1855 24.2784C62.1855 24.9944 62.7253 25.4756 63.4066 25.4756V25.476ZM55.9855 27.806C53.9802 27.806 52.4502 26.244 52.4502 24.3432C52.4502 22.4556 53.9802 20.8936 55.9855 20.8936C57.9905 20.8936 59.5205 22.4556 59.5205 24.3432C59.5205 26.244 57.9909 27.806 55.9855 27.806ZM55.9855 25.606C56.7183 25.606 57.2067 25.0332 57.2067 24.356C57.2067 23.6664 56.7183 23.0936 55.9855 23.0936C55.2527 23.0936 54.7644 23.6664 54.7644 24.356C54.7644 25.0332 55.2527 25.606 55.9855 25.606ZM48.237 18.824V25.3976H52.0678V27.6108H47.9155C46.4503 27.6108 45.8591 26.8296 45.8591 25.5928V18.824H48.237Z" fill="#AAD9D1"/>
</g>
<defs>
<clipPath id="clip0_4111_198">
<rect width="87" height="16" fill="white" transform="translate(24.9 16)"/>
</clipPath>
</defs>
</svg>
