<svg width="119" height="48" viewBox="0 0 119 48" fill="none" xmlns="http://www.w3.org/2000/svg">
<g clip-path="url(#clip0_4111_159)">
<path fill-rule="evenodd" clip-rule="evenodd" d="M30.1 27.2C29.5696 27.2 29.0609 26.9893 28.6858 26.6142C28.3107 26.2391 28.1 25.7304 28.1 25.2V16H24.1V25.2C24.1 28.5136 26.7864 31.2 30.1 31.2H34.5V27.2H30.1ZM42.1 20C41.6272 20 41.1591 20.0931 40.7223 20.274C40.2856 20.455 39.8887 20.7201 39.5544 21.0544C39.2201 21.3887 38.955 21.7856 38.774 22.2223C38.5931 22.6591 38.5 23.1272 38.5 23.6C38.5 24.0728 38.5931 24.5409 38.774 24.9777C38.955 25.4144 39.2201 25.8113 39.5544 26.1456C39.8887 26.4799 40.2856 26.745 40.7223 26.926C41.1591 27.1069 41.6272 27.2 42.1 27.2C43.0548 27.2 43.9705 26.8207 44.6456 26.1456C45.3207 25.4705 45.7 24.5548 45.7 23.6C45.7 22.6452 45.3207 21.7295 44.6456 21.0544C43.9705 20.3793 43.0548 20 42.1 20ZM34.5 23.6C34.5 19.4028 37.9028 16 42.1 16C46.2972 16 49.7 19.4028 49.7 23.6C49.7 27.7972 46.2972 31.2 42.1 31.2C37.9028 31.2 34.5 27.7972 34.5 23.6ZM85.3 20C84.3452 20 83.4296 20.3793 82.7544 21.0544C82.0793 21.7295 81.7 22.6452 81.7 23.6C81.7 24.5548 82.0793 25.4705 82.7544 26.1456C83.4296 26.8207 84.3452 27.2 85.3 27.2C86.2548 27.2 87.1705 26.8207 87.8456 26.1456C88.5207 25.4705 88.9 24.5548 88.9 23.6C88.9 22.6452 88.5207 21.7295 87.8456 21.0544C87.1705 20.3793 86.2548 20 85.3 20ZM77.7 23.6C77.7 19.4028 81.1028 16 85.3 16C89.4972 16 92.9 19.4028 92.9 23.6C92.9 27.7972 89.4972 31.2 85.3 31.2C81.1028 31.2 77.7 27.7972 77.7 23.6ZM58.1 16C53.9028 16 50.5 19.4028 50.5 23.6C50.5 27.7972 53.9028 31.2 58.1 31.2H69.3C70.0876 31.2 70.8472 31.08 71.5616 30.8576L73.7 32L76.0072 27.6784C76.5933 26.5783 76.8999 25.3509 76.9 24.1044V23.6C76.9 19.4028 73.4972 16 69.3 16H58.1ZM72.9 23.6C72.9 22.6452 72.5207 21.7295 71.8456 21.0544C71.1705 20.3793 70.2548 20 69.3 20H58.1C57.6272 20 57.1591 20.0931 56.7223 20.274C56.2856 20.455 55.8887 20.7201 55.5544 21.0544C55.2201 21.3887 54.955 21.7856 54.774 22.2223C54.5931 22.6591 54.5 23.1272 54.5 23.6C54.5 24.0728 54.5931 24.5409 54.774 24.9777C54.955 25.4144 55.2201 25.8113 55.5544 26.1456C55.8887 26.4799 56.2856 26.745 56.7223 26.926C57.1591 27.1069 57.6272 27.2 58.1 27.2H69.3C70.25 27.2 71.1614 26.8246 71.8357 26.1555C72.5101 25.4864 72.8926 24.5779 72.9 23.628V23.6Z" fill="#AAD9D1"/>
<path d="M94.5 17C94.5 17.2652 94.3946 17.5196 94.2071 17.7071C94.0196 17.8946 93.7652 18 93.5 18C93.2348 18 92.9804 17.8946 92.7929 17.7071C92.6054 17.5196 92.5 17.2652 92.5 17C92.5 16.7348 92.6054 16.4804 92.7929 16.2929C92.9804 16.1054 93.2348 16 93.5 16C93.7652 16 94.0196 16.1054 94.2071 16.2929C94.3946 16.4804 94.5 16.7348 94.5 17Z" fill="#AAD9D1"/>
</g>
<defs>
<clipPath id="clip0_4111_159">
<rect width="70.4" height="16" fill="white" transform="translate(24.1 16)"/>
</clipPath>
</defs>
</svg>
