<svg width="129" height="48" viewBox="0 0 129 48" fill="none" xmlns="http://www.w3.org/2000/svg">
<g clip-path="url(#clip0_4111_184)">
<path fill-rule="evenodd" clip-rule="evenodd" d="M34.3223 20.6741C33.6645 20.2346 32.8912 20 32.1 20V16C33.6823 16 35.229 16.4692 36.5446 17.3482C37.8602 18.2273 38.8856 19.4767 39.4911 20.9385C40.0966 22.4003 40.255 24.0089 39.9463 25.5607C39.6376 27.1126 38.8757 28.538 37.7569 29.6568C36.6381 30.7757 35.2126 31.5376 33.6608 31.8463C32.1089 32.155 30.5004 31.9965 29.0386 31.391C27.5768 30.7855 26.3273 29.7602 25.4483 28.4446C24.5692 27.129 24.1 25.5822 24.1 24H28.1C28.1 24.7911 28.3346 25.5645 28.7742 26.2223C29.2137 26.8801 29.8384 27.3928 30.5693 27.6955C31.3002 27.9983 32.1045 28.0775 32.8804 27.9231C33.6563 27.7688 34.369 27.3878 34.9285 26.8284C35.4879 26.269 35.8688 25.5563 36.0232 24.7804C36.1775 24.0044 36.0983 23.2002 35.7956 22.4693C35.4928 21.7384 34.9801 21.1136 34.3223 20.6741Z" fill="#AAD9D1"/>
<path fill-rule="evenodd" clip-rule="evenodd" d="M28.1 16C28.1 16.5253 27.9966 17.0454 27.7956 17.5307C27.5945 18.016 27.2999 18.457 26.9285 18.8284C26.557 19.1999 26.1161 19.4945 25.6308 19.6955C25.1455 19.8965 24.6253 20 24.1 20L24.1 24C25.1506 24 26.1909 23.7931 27.1615 23.391C28.1321 22.989 29.014 22.3997 29.7569 21.6568C30.4998 20.914 31.089 20.0321 31.4911 19.0615C31.8931 18.0909 32.1 17.0506 32.1 16L28.1 16Z" fill="#AAD9D1"/>
<path d="M74.3477 21.781H72.4069V27.9459H74.3477V21.781Z" fill="#AAD9D1"/>
<path d="M72.6228 20.6267C72.8256 20.8296 73.0792 20.9311 73.3836 20.9311C73.688 20.9311 73.9376 20.8296 74.132 20.6267C74.3268 20.4153 74.424 20.1616 74.424 19.8656C74.424 19.5612 74.3268 19.3074 74.132 19.1045C73.9376 18.9015 73.688 18.8 73.3836 18.8C73.0792 18.8 72.8256 18.9015 72.6228 19.1045C72.428 19.3074 72.3308 19.5612 72.3308 19.8656C72.3308 20.1616 72.428 20.4153 72.6228 20.6267Z" fill="#AAD9D1"/>
<path d="M44.5625 27.9459V18.9902H46.5541V26.1954H50.5245V27.9459H44.5625Z" fill="#AAD9D1"/>
<path fill-rule="evenodd" clip-rule="evenodd" d="M54.111 28.0855C53.4768 28.0855 52.9017 27.946 52.3859 27.6669C51.8785 27.3794 51.4768 26.9904 51.1808 26.4998C50.8848 26.0094 50.7368 25.4597 50.7368 24.8508C50.7368 24.2419 50.8848 23.6965 51.1808 23.2144C51.4768 22.7324 51.8785 22.3518 52.3859 22.0728C52.8933 21.7852 53.4683 21.6415 54.111 21.6415C54.7537 21.6415 55.3288 21.781 55.8362 22.0601C56.3436 22.3392 56.7453 22.724 57.0413 23.2144C57.3373 23.6965 57.4853 24.2419 57.4853 24.8508C57.4853 25.4597 57.3373 26.0094 57.0413 26.4998C56.7453 26.9904 56.3436 27.3794 55.8362 27.6669C55.3288 27.946 54.7537 28.0855 54.111 28.0855ZM54.111 26.3223C54.3901 26.3223 54.6353 26.2631 54.8468 26.1447C55.0582 26.0178 55.2189 25.8445 55.3288 25.6246C55.4472 25.3963 55.5064 25.1383 55.5064 24.8508C55.5064 24.5633 55.4472 24.3138 55.3288 24.1024C55.2104 23.8825 55.0455 23.7134 54.8341 23.595C54.6311 23.4681 54.3901 23.4047 54.111 23.4047C53.8404 23.4047 53.5994 23.4681 53.388 23.595C53.1766 23.7134 53.0117 23.8825 52.8933 24.1024C52.7749 24.3223 52.7157 24.576 52.7157 24.8635C52.7157 25.1426 52.7749 25.3963 52.8933 25.6246C53.0117 25.8445 53.1766 26.0178 53.388 26.1447C53.5994 26.2631 53.8404 26.3223 54.111 26.3223Z" fill="#AAD9D1"/>
<path fill-rule="evenodd" clip-rule="evenodd" d="M59.0223 30.3561C59.5382 30.5929 60.1344 30.7113 60.8109 30.7113C61.4705 30.7113 62.0583 30.5802 62.5741 30.3181C63.09 30.0559 63.4959 29.6923 63.7919 29.2272C64.0878 28.7621 64.236 28.2124 64.236 27.5781V21.7811H62.3331V22.1953C62.1916 22.0761 62.0308 21.9761 61.8511 21.8952C61.5212 21.7345 61.1449 21.6542 60.7221 21.6542C60.1555 21.6542 59.6523 21.7895 59.2126 22.0601C58.7728 22.3223 58.4261 22.6859 58.1724 23.151C57.9187 23.6077 57.7919 24.1235 57.7919 24.6986C57.7919 25.2652 57.9187 25.7811 58.1724 26.2462C58.4261 26.7113 58.7728 27.0792 59.2126 27.3498C59.6523 27.6204 60.1555 27.7557 60.7221 27.7557C61.1365 27.7557 61.5128 27.6754 61.8511 27.5147C62.0149 27.4369 62.1629 27.3451 62.295 27.2395V27.6289C62.295 28.0601 62.1555 28.3942 61.8764 28.631C61.6058 28.8678 61.2295 28.9861 60.7475 28.9861C60.3585 28.9861 60.0244 28.9185 59.7453 28.7832C59.4747 28.6479 59.2295 28.4491 59.0096 28.187L57.8172 29.3794C58.1132 29.8022 58.5149 30.1278 59.0223 30.3561ZM61.7876 25.8529C61.5931 25.9713 61.3606 26.0305 61.09 26.0305C60.8194 26.0305 60.5825 25.9713 60.3796 25.8529C60.1851 25.7345 60.0329 25.5739 59.9229 25.3709C59.813 25.1595 59.758 24.9354 59.758 24.6986C59.758 24.4449 59.813 24.2166 59.9229 24.0136C60.0329 23.8107 60.1893 23.65 60.3923 23.5316C60.5952 23.4132 60.8278 23.354 61.09 23.354C61.3606 23.354 61.5931 23.4132 61.7876 23.5316C61.9906 23.65 62.1428 23.8107 62.2443 24.0136C62.3542 24.2166 62.4092 24.4449 62.4092 24.6986C62.4092 24.9523 62.3542 25.1806 62.2443 25.3836C62.1428 25.5781 61.9906 25.7345 61.7876 25.8529Z" fill="#AAD9D1"/>
<path fill-rule="evenodd" clip-rule="evenodd" d="M68.3204 28.0855C67.686 28.0855 67.1108 27.946 66.5952 27.6669C66.0876 27.3794 65.686 26.9904 65.39 26.4998C65.094 26.0094 64.946 25.4597 64.946 24.8508C64.946 24.2419 65.094 23.6965 65.39 23.2144C65.686 22.7324 66.0876 22.3518 66.5952 22.0728C67.1024 21.7852 67.6776 21.6415 68.3204 21.6415C68.9628 21.6415 69.538 21.781 70.0452 22.0601C70.5528 22.3392 70.9544 22.724 71.2504 23.2144C71.5464 23.6965 71.6944 24.2419 71.6944 24.8508C71.6944 25.4597 71.5464 26.0094 71.2504 26.4998C70.9544 26.9904 70.5528 27.3794 70.0452 27.6669C69.538 27.946 68.9628 28.0855 68.3204 28.0855ZM68.3204 26.3223C68.5992 26.3223 68.8444 26.2631 69.056 26.1447C69.2672 26.0178 69.428 25.8445 69.538 25.6246C69.6564 25.3963 69.7156 25.1383 69.7156 24.8508C69.7156 24.5633 69.6564 24.3138 69.538 24.1024C69.4196 23.8825 69.2548 23.7134 69.0432 23.595C68.8404 23.4681 68.5992 23.4047 68.3204 23.4047C68.0496 23.4047 67.8084 23.4681 67.5972 23.595C67.3856 23.7134 67.2208 23.8825 67.1024 24.1024C66.984 24.3223 66.9248 24.576 66.9248 24.8635C66.9248 25.1426 66.984 25.3963 67.1024 25.6246C67.2208 25.8445 67.3856 26.0178 67.5972 26.1447C67.8084 26.2631 68.0496 26.3223 68.3204 26.3223Z" fill="#AAD9D1"/>
<path fill-rule="evenodd" clip-rule="evenodd" d="M79.0124 28.0728C78.5984 28.0728 78.2176 27.9925 77.8708 27.8318C77.6884 27.7473 77.5236 27.6463 77.3764 27.5289V30.5464H75.4608V21.7811H77.4016V22.2065C77.5424 22.0914 77.6988 21.9918 77.8708 21.9079C78.2176 21.7387 78.5984 21.6542 79.0124 21.6542C79.596 21.6542 80.112 21.7937 80.56 22.0728C81.0168 22.3519 81.372 22.7324 81.6256 23.2145C81.888 23.6965 82.0188 24.2462 82.0188 24.8635C82.0188 25.4809 81.888 26.0305 81.6256 26.5126C81.372 26.9946 81.0168 27.3751 80.56 27.6542C80.112 27.9333 79.596 28.0728 79.0124 28.0728ZM78.6576 26.3223C78.9364 26.3223 79.1776 26.2589 79.3804 26.132C79.592 26.0052 79.7568 25.8318 79.8752 25.6119C79.9936 25.3921 80.0528 25.1426 80.0528 24.8635C80.0528 24.576 79.9936 24.3223 79.8752 24.1024C79.7568 23.8825 79.592 23.7134 79.3804 23.595C79.1776 23.4681 78.9408 23.4047 78.67 23.4047C78.3996 23.4047 78.1584 23.4681 77.9472 23.595C77.744 23.7134 77.5836 23.8825 77.4652 24.1024C77.3468 24.3223 77.2876 24.576 77.2876 24.8635C77.2876 25.1426 77.3424 25.3921 77.4524 25.6119C77.5708 25.8318 77.7356 26.0052 77.9472 26.132C78.1584 26.2589 78.3952 26.3223 78.6576 26.3223Z" fill="#AAD9D1"/>
<path d="M83.9184 27.9586C84.2736 28.0516 84.6328 28.0981 84.9964 28.0981C85.766 28.0981 86.3748 27.9206 86.8232 27.5654C87.2796 27.2102 87.508 26.7324 87.508 26.132C87.508 25.743 87.4364 25.43 87.2924 25.1933C87.1488 24.948 86.9628 24.7535 86.7344 24.6098C86.506 24.466 86.2648 24.3518 86.0112 24.2672C85.7576 24.1827 85.5164 24.1108 85.2884 24.0516C85.06 23.9924 84.874 23.9248 84.73 23.8486C84.5864 23.7725 84.5144 23.671 84.5144 23.5442C84.5144 23.4258 84.5696 23.337 84.6792 23.2778C84.7892 23.2102 84.954 23.1764 85.174 23.1764C85.4024 23.1764 85.6348 23.2228 85.8716 23.3159C86.1168 23.4089 86.3368 23.5696 86.5312 23.7979L87.6348 22.6816C87.356 22.3264 86.9924 22.06 86.544 21.8825C86.1044 21.6964 85.6224 21.6034 85.098 21.6034C84.5992 21.6034 84.1636 21.688 83.7916 21.8571C83.4192 22.0262 83.1316 22.2588 82.9288 22.5548C82.726 22.8423 82.6244 23.1848 82.6244 23.5823C82.6244 23.9544 82.6964 24.263 82.84 24.5083C82.9836 24.745 83.17 24.9311 83.398 25.0664C83.6264 25.2017 83.8676 25.3074 84.1212 25.3835C84.3748 25.4596 84.616 25.5315 84.8444 25.5992C85.0724 25.6584 85.2588 25.7303 85.4024 25.8148C85.5548 25.891 85.6308 26.0051 85.6308 26.1573C85.6308 26.2757 85.5672 26.3687 85.4404 26.4364C85.322 26.504 85.1488 26.5379 84.9204 26.5379C84.5904 26.5379 84.286 26.4787 84.0072 26.3603C83.728 26.2334 83.4868 26.0601 83.284 25.8402L82.1804 26.9565C82.392 27.1848 82.6456 27.3878 82.9416 27.5654C83.246 27.7345 83.5716 27.8656 83.9184 27.9586Z" fill="#AAD9D1"/>
<path d="M91.0473 28.0854C90.4809 28.0854 89.9777 27.9713 89.5381 27.743C89.1065 27.5062 88.7685 27.1848 88.5233 26.7789C88.2777 26.3645 88.1553 25.891 88.1553 25.3582V21.781H90.0961V25.3328C90.0961 25.5442 90.1297 25.726 90.1977 25.8782C90.2737 26.0305 90.3837 26.1489 90.5273 26.2334C90.6713 26.318 90.8445 26.3603 91.0473 26.3603C91.3349 26.3603 91.5633 26.2715 91.7325 26.0939C91.9017 25.9078 91.9861 25.6542 91.9861 25.3328V21.781H93.9269V25.3455C93.9269 25.8867 93.8045 26.3645 93.5589 26.7789C93.3137 27.1848 92.9757 27.5062 92.5441 27.743C92.1129 27.9713 91.6141 28.0854 91.0473 28.0854Z" fill="#AAD9D1"/>
<path d="M96.8324 21.7811H94.8916V27.946H96.8324V24.3434C96.8324 24.132 96.8748 23.9544 96.9592 23.8107C97.0524 23.6669 97.1752 23.5569 97.3272 23.4809C97.4796 23.3963 97.6528 23.354 97.8472 23.354C98.1264 23.354 98.3588 23.4428 98.5448 23.6204C98.7396 23.7895 98.8368 24.0305 98.8368 24.3434V27.946H100.778V24.3434C100.778 24.132 100.82 23.9544 100.904 23.8107C100.998 23.6669 101.12 23.5569 101.272 23.4809C101.424 23.3963 101.598 23.354 101.792 23.354C102.072 23.354 102.304 23.4428 102.49 23.6204C102.684 23.7895 102.782 24.0305 102.782 24.3434V27.946H104.723V24.1278C104.723 23.6119 104.613 23.1722 104.393 22.8085C104.181 22.4364 103.89 22.1531 103.518 21.9587C103.154 21.7557 102.735 21.6542 102.262 21.6542C101.78 21.6542 101.344 21.7599 100.955 21.9713C100.702 22.106 100.482 22.2799 100.292 22.4928C100.116 22.2701 99.9016 22.0878 99.6484 21.9459C99.3104 21.7515 98.9256 21.6542 98.4944 21.6542C98.0376 21.6542 97.6276 21.7515 97.264 21.9459C97.1056 22.0269 96.962 22.1238 96.8324 22.2367V21.7811Z" fill="#AAD9D1"/>
</g>
<defs>
<clipPath id="clip0_4111_184">
<rect width="80.8" height="16" fill="white" transform="translate(24.1 16)"/>
</clipPath>
</defs>
</svg>
