<svg width="136" height="48" viewBox="0 0 136 48" fill="none" xmlns="http://www.w3.org/2000/svg">
<g clip-path="url(#clip0_4111_216)">
<path d="M73.6421 27.8095H75.5073V20.7741H73.6421V27.8095ZM73.6421 19.6769H75.5073V18.0038H73.6421V19.6769Z" fill="#AAD9D1"/>
<path d="M76.7092 30.1135H78.5744V27.014H78.6016C78.9992 27.6175 79.644 28.0152 80.6312 28.0152C82.4416 28.0152 83.676 26.5752 83.676 24.2986C83.676 22.1043 82.4828 20.582 80.6176 20.582C79.6576 20.582 78.9992 21.0346 78.5468 21.6518H78.5056V20.774H76.7092V30.1135ZM80.2336 26.4655C79.1228 26.4655 78.5332 25.6289 78.5332 24.3535C78.5332 23.0918 78.9992 22.0906 80.1652 22.0906C81.3172 22.0906 81.7832 23.0232 81.7832 24.3535C81.7832 25.6838 81.18 26.4655 80.2336 26.4655Z" fill="#AAD9D1"/>
<path d="M87.3964 28.0152C89.152 28.0152 90.3588 27.1649 90.3588 25.7523C90.3588 24.1066 89.056 23.7775 87.8764 23.5306C86.8752 23.3249 85.9428 23.27 85.9428 22.6666C85.9428 22.1592 86.4228 21.8849 87.1496 21.8849C87.9452 21.8849 88.4252 22.1592 88.5072 22.9135H90.194C90.0572 21.5009 89.0284 20.582 87.1772 20.582C85.5724 20.582 84.3108 21.3089 84.3108 22.8312C84.3108 24.3672 85.5452 24.71 86.8068 24.9569C87.7668 25.1489 88.658 25.2175 88.658 25.8895C88.658 26.3832 88.192 26.6986 87.3692 26.6986C86.5324 26.6986 85.9564 26.342 85.8332 25.5329H84.1052C84.2148 27.0278 85.3532 28.0152 87.3964 28.0152Z" fill="#AAD9D1"/>
<path d="M97.4401 27.8095V20.774H95.5749V24.8335C95.5749 25.766 95.0401 26.4243 94.1625 26.4243C93.3669 26.4243 92.9969 25.9718 92.9969 25.1489V20.774H91.1453V25.4643C91.1453 27.0003 92.0229 28.0015 93.5865 28.0015C94.5741 28.0015 95.1225 27.6312 95.6025 26.9866H95.6437V27.8095H97.4401Z" fill="#AAD9D1"/>
<path d="M98.6465 27.8095H100.512V23.7226C100.512 22.79 101.019 22.1866 101.774 22.1866C102.459 22.1866 102.857 22.598 102.857 23.3935V27.8095H104.722V23.7226C104.722 22.79 105.202 22.1866 105.984 22.1866C106.67 22.1866 107.067 22.598 107.067 23.3935V27.8095H108.932V23.078C108.932 21.542 108.096 20.582 106.614 20.582C105.723 20.582 104.982 21.0483 104.502 21.8163H104.475C104.132 21.0758 103.419 20.582 102.528 20.582C101.554 20.582 100.868 21.0758 100.484 21.7203H100.443V20.774H98.6465V27.8095Z" fill="#AAD9D1"/>
<path d="M25.0298 27.8095H26.8949V18.0038H25.0298V27.8095Z" fill="#AAD9D1"/>
<path d="M31.4555 28.0152C33.636 28.0152 35.1309 26.3969 35.1309 24.2986C35.1309 22.2003 33.636 20.582 31.4555 20.582C29.2749 20.582 27.78 22.2003 27.78 24.2986C27.78 26.3969 29.2749 28.0152 31.4555 28.0152ZM31.4555 26.5889C30.3035 26.5889 29.6726 25.67 29.6726 24.2986C29.6726 22.9272 30.3035 21.9946 31.4555 21.9946C32.5938 21.9946 33.2383 22.9272 33.2383 24.2986C33.2383 25.67 32.5938 26.5889 31.4555 26.5889Z" fill="#AAD9D1"/>
<path d="M39.0973 30.2095C40.1396 30.2095 41.0447 29.9626 41.6344 29.414C42.1556 28.934 42.471 28.262 42.471 27.2746V20.774H40.6745V21.5146H40.647C40.2219 20.9249 39.5773 20.582 38.6996 20.582C36.9167 20.582 35.655 21.926 35.655 24.0243C35.655 26.15 37.191 27.3843 38.7545 27.3843C39.6459 27.3843 40.1807 27.0278 40.5921 26.5615H40.6333V27.3295C40.6333 28.2895 40.1259 28.7969 39.0699 28.7969C38.2059 28.7969 37.8081 28.454 37.6573 28.0152H35.8059C35.9979 29.3866 37.1773 30.2095 39.0973 30.2095ZM39.0699 25.8895C38.1099 25.8895 37.479 25.19 37.479 23.9969C37.479 22.8175 38.1099 22.0769 39.0561 22.0769C40.1807 22.0769 40.7293 22.9546 40.7293 23.9832C40.7293 25.0255 40.2493 25.8895 39.0699 25.8895Z" fill="#AAD9D1"/>
<path d="M47.0045 28.0152C49.1851 28.0152 50.68 26.3969 50.68 24.2986C50.68 22.2003 49.1851 20.582 47.0045 20.582C44.824 20.582 43.3291 22.2003 43.3291 24.2986C43.3291 26.3969 44.824 28.0152 47.0045 28.0152ZM47.0045 26.5889C45.8525 26.5889 45.2217 25.67 45.2217 24.2986C45.2217 22.9272 45.8525 21.9946 47.0045 21.9946C48.1428 21.9946 48.7874 22.9272 48.7874 24.2986C48.7874 25.67 48.1428 26.5889 47.0045 26.5889Z" fill="#AAD9D1"/>
<path d="M109.61 19.619C109.61 19.3034 109.866 19.0476 110.182 19.0476H111.325C111.64 19.0476 111.896 19.3034 111.896 19.619C111.896 19.9346 111.64 20.1905 111.325 20.1905H110.182C109.866 20.1905 109.61 19.9346 109.61 19.619Z" fill="#AAD9D1"/>
<path fill-rule="evenodd" clip-rule="evenodd" d="M61.9912 16C66.4093 16 69.9913 19.5817 69.9913 24C69.9913 28.4183 66.4093 32 61.9912 32C57.5729 32 53.9912 28.4183 53.9912 24C53.9912 19.5817 57.5729 16 61.9912 16ZM61.7021 16.5986C60.7894 16.7271 59.9203 17.4604 59.2457 18.687C59.0501 19.0427 58.8735 19.4358 58.7196 19.8602C59.6369 19.6297 60.6446 19.4938 61.7021 19.4727V16.5986ZM58.0435 20.0523C58.2349 19.4518 58.4689 18.8994 58.739 18.4083C59.0734 17.8002 59.4703 17.2752 59.9174 16.8719C57.4859 17.5781 55.5693 19.4947 54.8631 21.9263C55.2664 21.4791 55.7914 21.0822 56.3995 20.7478C56.8906 20.4777 57.443 20.2436 58.0435 20.0523ZM57.8514 20.7284C57.6209 21.6457 57.485 22.6534 57.4639 23.7108H54.5898C54.7183 22.7982 55.4516 21.9291 56.6782 21.2546C57.0339 21.0589 57.427 20.8823 57.8514 20.7284ZM58.0424 23.7108C58.0663 22.5568 58.2324 21.4734 58.5073 20.5161C59.4646 20.2412 60.548 20.075 61.7021 20.0512V21.3003C61.2715 22.4025 60.3935 23.2805 59.2913 23.7108H58.0424ZM57.4639 24.2892H54.5898C54.7183 25.2018 55.4516 26.0708 56.6782 26.7454C57.0339 26.9411 57.427 27.1177 57.8514 27.2716C57.6209 26.3543 57.485 25.3466 57.4639 24.2892ZM58.5073 27.4839C58.2324 26.5266 58.0663 25.4432 58.0424 24.2892H59.2913C60.3935 24.7195 61.2715 25.5975 61.7021 26.6997V27.9488C60.548 27.925 59.4646 27.7588 58.5073 27.4839ZM58.0435 27.9477C57.443 27.7564 56.8906 27.5223 56.3995 27.2522C55.7914 26.9178 55.2664 26.5209 54.8631 26.0737C55.5693 28.5053 57.4859 30.4219 59.9174 31.1281C59.4703 30.7248 59.0734 30.1998 58.739 29.5917C58.4689 29.1006 58.2349 28.5482 58.0435 27.9477ZM61.7021 31.4014C60.7894 31.2729 59.9203 30.5396 59.2457 29.313C59.0501 28.9573 58.8735 28.5642 58.7196 28.1398C59.6369 28.3703 60.6446 28.5062 61.7021 28.5272V31.4014ZM64.0649 31.1281C64.5121 30.7248 64.9089 30.1998 65.2433 29.5917C65.5133 29.1006 65.7477 28.5482 65.9389 27.9477C66.5393 27.7564 67.0917 27.5223 67.5829 27.2522C68.1909 26.9178 68.7161 26.5209 69.1193 26.0737C68.4129 28.5053 66.4965 30.4219 64.0649 31.1281ZM65.2629 28.1398C65.1089 28.5642 64.9321 28.9573 64.7365 29.313C64.0621 30.5396 63.193 31.2729 62.2803 31.4014V28.5272C63.3378 28.5062 64.3454 28.3703 65.2629 28.1398ZM66.1309 27.2716C66.5553 27.1177 66.9485 26.9411 67.3041 26.7454C68.5309 26.0709 69.2641 25.2018 69.3925 24.2892H66.5185C66.4973 25.3466 66.3613 26.3543 66.1309 27.2716ZM65.9401 24.2892C65.9161 25.4432 65.7501 26.5266 65.4749 27.4839C64.5178 27.7588 63.4344 27.925 62.2803 27.9488V26.7006C62.7107 25.598 63.589 24.7196 64.6915 24.2892H65.9401ZM66.5185 23.7108H69.3925C69.2641 22.7982 68.5309 21.9291 67.3041 21.2546C66.9485 21.0589 66.5553 20.8823 66.1309 20.7284C66.3613 21.6457 66.4973 22.6534 66.5185 23.7108ZM65.4749 20.5161C65.7501 21.4734 65.9161 22.5568 65.9401 23.7108H64.6915C63.589 23.2804 62.7107 22.402 62.2803 21.2994V20.0512C63.4344 20.075 64.5178 20.2412 65.4749 20.5161ZM65.9389 20.0523C66.5393 20.2436 67.0917 20.4777 67.5829 20.7478C68.1909 21.0822 68.7161 21.4791 69.1193 21.9263C68.4129 19.4947 66.4965 17.5781 64.0649 16.8719C64.5121 17.2752 64.9089 17.8002 65.2433 18.4083C65.5133 18.8994 65.7477 19.4518 65.9389 20.0523ZM62.2803 16.5986C63.193 16.7271 64.0621 17.4604 64.7365 18.687C64.9321 19.0427 65.1089 19.4358 65.2629 19.8602C64.3454 19.6297 63.3378 19.4938 62.2803 19.4727V16.5986Z" fill="#AAD9D1"/>
</g>
<defs>
<clipPath id="clip0_4111_216">
<rect width="87.2" height="16" fill="white" transform="translate(24.7001 16)"/>
</clipPath>
</defs>
</svg>
