<svg width="119" height="48" viewBox="0 0 119 48" fill="none" xmlns="http://www.w3.org/2000/svg">
<g clip-path="url(#clip0_4111_167)">
<path fill-rule="evenodd" clip-rule="evenodd" d="M30.5 27.2C29.9696 27.2 29.4609 26.9893 29.0858 26.6142C28.7107 26.2391 28.5 25.7304 28.5 25.2V16H24.5V25.2C24.5 28.5136 27.1864 31.2 30.5 31.2H34.9V27.2H30.5ZM42.5 20C42.0272 20 41.5591 20.0931 41.1223 20.274C40.6856 20.455 40.2887 20.7201 39.9544 21.0544C39.6201 21.3887 39.355 21.7856 39.174 22.2223C38.9931 22.6591 38.9 23.1272 38.9 23.6C38.9 24.0728 38.9931 24.5409 39.174 24.9777C39.355 25.4144 39.6201 25.8113 39.9544 26.1456C40.2887 26.4799 40.6856 26.745 41.1223 26.926C41.5591 27.1069 42.0272 27.2 42.5 27.2C43.4548 27.2 44.3705 26.8207 45.0456 26.1456C45.7207 25.4705 46.1 24.5548 46.1 23.6C46.1 22.6452 45.7207 21.7295 45.0456 21.0544C44.3705 20.3793 43.4548 20 42.5 20ZM34.9 23.6C34.9 19.4028 38.3028 16 42.5 16C46.6972 16 50.1 19.4028 50.1 23.6C50.1 27.7972 46.6972 31.2 42.5 31.2C38.3028 31.2 34.9 27.7972 34.9 23.6ZM85.7 20C84.7452 20 83.8295 20.3793 83.1544 21.0544C82.4793 21.7295 82.1 22.6452 82.1 23.6C82.1 24.5548 82.4793 25.4705 83.1544 26.1456C83.8295 26.8207 84.7452 27.2 85.7 27.2C86.6548 27.2 87.5705 26.8207 88.2456 26.1456C88.9207 25.4705 89.3 24.5548 89.3 23.6C89.3 22.6452 88.9207 21.7295 88.2456 21.0544C87.5705 20.3793 86.6548 20 85.7 20ZM78.1 23.6C78.1 19.4028 81.5028 16 85.7 16C89.8972 16 93.3 19.4028 93.3 23.6C93.3 27.7972 89.8972 31.2 85.7 31.2C81.5028 31.2 78.1 27.7972 78.1 23.6ZM58.5 16C54.3028 16 50.9 19.4028 50.9 23.6C50.9 27.7972 54.3028 31.2 58.5 31.2H69.7C70.4876 31.2 71.2472 31.08 71.9616 30.8576L74.1 32L76.4072 27.6784C76.9933 26.5783 77.2999 25.3509 77.3 24.1044V23.6C77.3 19.4028 73.8972 16 69.7 16H58.5ZM73.3 23.6C73.3 22.6452 72.9207 21.7295 72.2456 21.0544C71.5705 20.3793 70.6548 20 69.7 20H58.5C58.0272 20 57.5591 20.0931 57.1223 20.274C56.6856 20.455 56.2887 20.7201 55.9544 21.0544C55.6201 21.3887 55.3549 21.7856 55.174 22.2223C54.9931 22.6591 54.9 23.1272 54.9 23.6C54.9 24.0728 54.9931 24.5409 55.174 24.9777C55.3549 25.4144 55.6201 25.8113 55.9544 26.1456C56.2887 26.4799 56.6856 26.745 57.1223 26.926C57.5591 27.1069 58.0272 27.2 58.5 27.2H69.7C70.6499 27.2 71.5614 26.8246 72.2357 26.1555C72.9101 25.4864 73.2926 24.5779 73.3 23.628V23.6Z" fill="#AAD9D1"/>
<path d="M94.9 17C94.9 17.2652 94.7947 17.5196 94.6071 17.7071C94.4196 17.8946 94.1652 18 93.9 18C93.6348 18 93.3805 17.8946 93.1929 17.7071C93.0054 17.5196 92.9 17.2652 92.9 17C92.9 16.7348 93.0054 16.4804 93.1929 16.2929C93.3805 16.1054 93.6348 16 93.9 16C94.1652 16 94.4196 16.1054 94.6071 16.2929C94.7947 16.4804 94.9 16.7348 94.9 17Z" fill="#AAD9D1"/>
</g>
<defs>
<clipPath id="clip0_4111_167">
<rect width="70.4" height="16" fill="white" transform="translate(24.5 16)"/>
</clipPath>
</defs>
</svg>
