<svg width="137" height="48" viewBox="0 0 137 48" fill="none" xmlns="http://www.w3.org/2000/svg">
<g clip-path="url(#clip0_4111_171)">
<path d="M73.842 27.8095H75.7072V20.7741H73.842V27.8095ZM73.842 19.6769H75.7072V18.0038H73.842V19.6769Z" fill="#AAD9D1"/>
<path d="M76.9092 30.1135H78.7744V27.014H78.8016C79.1992 27.6175 79.844 28.0152 80.8312 28.0152C82.6416 28.0152 83.876 26.5752 83.876 24.2986C83.876 22.1043 82.6828 20.582 80.8176 20.582C79.8576 20.582 79.1992 21.0346 78.7468 21.6518H78.7056V20.774H76.9092V30.1135ZM80.4336 26.4655C79.3228 26.4655 78.7332 25.6289 78.7332 24.3535C78.7332 23.0918 79.1992 22.0906 80.3652 22.0906C81.5172 22.0906 81.9832 23.0232 81.9832 24.3535C81.9832 25.6838 81.38 26.4655 80.4336 26.4655Z" fill="#AAD9D1"/>
<path d="M87.5964 28.0152C89.352 28.0152 90.5588 27.1649 90.5588 25.7523C90.5588 24.1066 89.256 23.7775 88.0764 23.5306C87.0752 23.3249 86.1428 23.27 86.1428 22.6666C86.1428 22.1592 86.6228 21.8849 87.3496 21.8849C88.1452 21.8849 88.6252 22.1592 88.7072 22.9135H90.394C90.2572 21.5009 89.2284 20.582 87.3772 20.582C85.7724 20.582 84.5108 21.3089 84.5108 22.8312C84.5108 24.3672 85.7452 24.71 87.0068 24.9569C87.9668 25.1489 88.858 25.2175 88.858 25.8895C88.858 26.3832 88.392 26.6986 87.5692 26.6986C86.7324 26.6986 86.1564 26.342 86.0332 25.5329H84.3052C84.4148 27.0278 85.5532 28.0152 87.5964 28.0152Z" fill="#AAD9D1"/>
<path d="M97.64 27.8095V20.774H95.7748V24.8335C95.7748 25.766 95.24 26.4243 94.3624 26.4243C93.5668 26.4243 93.1968 25.9718 93.1968 25.1489V20.774H91.3452V25.4643C91.3452 27.0003 92.2228 28.0015 93.7864 28.0015C94.774 28.0015 95.3224 27.6312 95.8024 26.9866H95.8436V27.8095H97.64Z" fill="#AAD9D1"/>
<path d="M98.8464 27.8095H100.712V23.7226C100.712 22.79 101.219 22.1866 101.974 22.1866C102.659 22.1866 103.057 22.598 103.057 23.3935V27.8095H104.922V23.7226C104.922 22.79 105.402 22.1866 106.184 22.1866C106.87 22.1866 107.267 22.598 107.267 23.3935V27.8095H109.132V23.078C109.132 21.542 108.296 20.582 106.814 20.582C105.923 20.582 105.182 21.0483 104.702 21.8163H104.675C104.332 21.0758 103.619 20.582 102.728 20.582C101.754 20.582 101.068 21.0758 100.684 21.7203H100.643V20.774H98.8464V27.8095Z" fill="#AAD9D1"/>
<path d="M25.2297 27.8095H27.0948V18.0038H25.2297V27.8095Z" fill="#AAD9D1"/>
<path d="M31.6554 28.0152C33.8359 28.0152 35.3308 26.3969 35.3308 24.2986C35.3308 22.2003 33.8359 20.582 31.6554 20.582C29.4748 20.582 27.9799 22.2003 27.9799 24.2986C27.9799 26.3969 29.4748 28.0152 31.6554 28.0152ZM31.6554 26.5889C30.5034 26.5889 29.8725 25.67 29.8725 24.2986C29.8725 22.9272 30.5034 21.9946 31.6554 21.9946C32.7936 21.9946 33.4382 22.9272 33.4382 24.2986C33.4382 25.67 32.7936 26.5889 31.6554 26.5889Z" fill="#AAD9D1"/>
<path d="M39.2972 30.2095C40.3395 30.2095 41.2446 29.9626 41.8343 29.414C42.3555 28.934 42.6709 28.262 42.6709 27.2746V20.774H40.8744V21.5146H40.8469C40.4218 20.9249 39.7772 20.582 38.8995 20.582C37.1166 20.582 35.8549 21.926 35.8549 24.0243C35.8549 26.15 37.3909 27.3843 38.9544 27.3843C39.8458 27.3843 40.3806 27.0278 40.792 26.5615H40.8332V27.3295C40.8332 28.2895 40.3258 28.7969 39.2698 28.7969C38.4058 28.7969 38.008 28.454 37.8572 28.0152H36.0058C36.1978 29.3866 37.3772 30.2095 39.2972 30.2095ZM39.2698 25.8895C38.3098 25.8895 37.6789 25.19 37.6789 23.9969C37.6789 22.8175 38.3098 22.0769 39.256 22.0769C40.3806 22.0769 40.9292 22.9546 40.9292 23.9832C40.9292 25.0255 40.4492 25.8895 39.2698 25.8895Z" fill="#AAD9D1"/>
<path d="M47.2045 28.0152C49.3851 28.0152 50.8799 26.3969 50.8799 24.2986C50.8799 22.2003 49.3851 20.582 47.2045 20.582C45.0239 20.582 43.5291 22.2003 43.5291 24.2986C43.5291 26.3969 45.0239 28.0152 47.2045 28.0152ZM47.2045 26.5889C46.0525 26.5889 45.4217 25.67 45.4217 24.2986C45.4217 22.9272 46.0525 21.9946 47.2045 21.9946C48.3428 21.9946 48.9874 22.9272 48.9874 24.2986C48.9874 25.67 48.3428 26.5889 47.2045 26.5889Z" fill="#AAD9D1"/>
<path d="M109.81 19.619C109.81 19.3034 110.066 19.0476 110.382 19.0476H111.524C111.84 19.0476 112.096 19.3034 112.096 19.619C112.096 19.9346 111.84 20.1905 111.524 20.1905H110.382C110.066 20.1905 109.81 19.9346 109.81 19.619Z" fill="#AAD9D1"/>
<path fill-rule="evenodd" clip-rule="evenodd" d="M62.1911 16C66.6092 16 70.1912 19.5817 70.1912 24C70.1912 28.4183 66.6092 32 62.1911 32C57.7728 32 54.1911 28.4183 54.1911 24C54.1911 19.5817 57.7728 16 62.1911 16ZM61.9019 16.5986C60.9893 16.7271 60.1202 17.4604 59.4456 18.687C59.2499 19.0427 59.0734 19.4358 58.9195 19.8602C59.8368 19.6297 60.8445 19.4938 61.9019 19.4727V16.5986ZM58.2434 20.0523C58.4347 19.4518 58.6688 18.8994 58.9389 18.4083C59.2733 17.8002 59.6702 17.2752 60.1173 16.8719C57.6858 17.5781 55.7692 19.4947 55.063 21.9263C55.4663 21.4791 55.9913 21.0822 56.5993 20.7478C57.0905 20.4777 57.6429 20.2436 58.2434 20.0523ZM58.0513 20.7284C57.8207 21.6457 57.6849 22.6534 57.6638 23.7108H54.7897C54.9181 22.7982 55.6515 21.9291 56.8781 21.2546C57.2338 21.0589 57.6269 20.8823 58.0513 20.7284ZM58.2423 23.7108C58.2661 22.5568 58.4323 21.4734 58.7072 20.5161C59.6645 20.2412 60.7479 20.075 61.9019 20.0512V21.3003C61.4714 22.4025 60.5933 23.2805 59.4911 23.7108H58.2423ZM57.6638 24.2892H54.7897C54.9181 25.2018 55.6515 26.0708 56.8781 26.7454C57.2338 26.9411 57.6269 27.1177 58.0513 27.2716C57.8207 26.3543 57.6849 25.3466 57.6638 24.2892ZM58.7072 27.4839C58.4323 26.5266 58.2661 25.4432 58.2423 24.2892H59.4911C60.5933 24.7195 61.4714 25.5975 61.9019 26.6997V27.9488C60.7479 27.925 59.6645 27.7588 58.7072 27.4839ZM58.2434 27.9477C57.6429 27.7564 57.0905 27.5223 56.5993 27.2522C55.9913 26.9178 55.4663 26.5209 55.063 26.0737C55.7692 28.5053 57.6858 30.4219 60.1173 31.1281C59.6702 30.7248 59.2733 30.1998 58.9389 29.5917C58.6688 29.1006 58.4347 28.5482 58.2434 27.9477ZM61.9019 31.4014C60.9893 31.2729 60.1202 30.5396 59.4456 29.313C59.2499 28.9573 59.0734 28.5642 58.9195 28.1398C59.8368 28.3703 60.8445 28.5062 61.9019 28.5272V31.4014ZM64.2648 31.1281C64.712 30.7248 65.1088 30.1998 65.4432 29.5917C65.7132 29.1006 65.9476 28.5482 66.1388 27.9477C66.7392 27.7564 67.2916 27.5223 67.7828 27.2522C68.3908 26.9178 68.916 26.5209 69.3192 26.0737C68.6128 28.5053 66.6964 30.4219 64.2648 31.1281ZM65.4628 28.1398C65.3088 28.5642 65.132 28.9573 64.9364 29.313C64.2619 30.5396 63.3929 31.2729 62.4802 31.4014V28.5272C63.5377 28.5062 64.5453 28.3703 65.4628 28.1398ZM66.3308 27.2716C66.7552 27.1177 67.1484 26.9411 67.504 26.7454C68.7308 26.0709 69.464 25.2018 69.5924 24.2892H66.7184C66.6972 25.3466 66.5612 26.3543 66.3308 27.2716ZM66.14 24.2892C66.116 25.4432 65.95 26.5266 65.6748 27.4839C64.7177 27.7588 63.6343 27.925 62.4802 27.9488V26.7006C62.9106 25.598 63.7889 24.7196 64.8914 24.2892H66.14ZM66.7184 23.7108H69.5924C69.464 22.7982 68.7308 21.9291 67.504 21.2546C67.1484 21.0589 66.7552 20.8823 66.3308 20.7284C66.5612 21.6457 66.6972 22.6534 66.7184 23.7108ZM65.6748 20.5161C65.95 21.4734 66.116 22.5568 66.14 23.7108H64.8914C63.7889 23.2804 62.9106 22.402 62.4802 21.2994V20.0512C63.6343 20.075 64.7177 20.2412 65.6748 20.5161ZM66.1388 20.0523C66.7392 20.2436 67.2916 20.4777 67.7828 20.7478C68.3908 21.0822 68.916 21.4791 69.3192 21.9263C68.6128 19.4947 66.6964 17.5781 64.2648 16.8719C64.712 17.2752 65.1088 17.8002 65.4432 18.4083C65.7132 18.8994 65.9476 19.4518 66.1388 20.0523ZM62.4802 16.5986C63.3929 16.7271 64.2619 17.4604 64.9364 18.687C65.132 19.0427 65.3088 19.4358 65.4628 19.8602C64.5453 19.6297 63.5377 19.4938 62.4802 19.4727V16.5986Z" fill="#AAD9D1"/>
</g>
<defs>
<clipPath id="clip0_4111_171">
<rect width="87.2" height="16" fill="white" transform="translate(24.9 16)"/>
</clipPath>
</defs>
</svg>
