<svg width="136" height="48" viewBox="0 0 136 48" fill="none" xmlns="http://www.w3.org/2000/svg">
<g clip-path="url(#clip0_4111_163)">
<path d="M32.4091 32C36.7773 32 40.3182 28.4184 40.3182 24V18.4C40.3182 17.7635 40.0682 17.153 39.6232 16.7029C39.1783 16.2529 38.5747 16 37.9455 16H32.8045V19.5096C32.8045 20.3104 32.8528 21.14 33.268 21.8216C33.5653 22.3101 33.9629 22.7282 34.434 23.0475C34.9051 23.3669 35.4386 23.58 35.9982 23.6724L36.1497 23.6972C36.2121 23.7188 36.2663 23.7596 36.3047 23.8139C36.3431 23.8682 36.3637 23.9333 36.3637 24C36.3637 24.0667 36.3431 24.1318 36.3047 24.1861C36.2663 24.2404 36.2121 24.2812 36.1497 24.3028L35.9982 24.3276C35.1805 24.4627 34.4254 24.8542 33.8395 25.4468C33.2536 26.0395 32.8665 26.8033 32.733 27.6304L32.7085 27.7836C32.6871 27.8468 32.6468 27.9016 32.5931 27.9404C32.5394 27.9792 32.4751 28.0001 32.4091 28.0001C32.3431 28.0001 32.2788 27.9792 32.2251 27.9404C32.1714 27.9016 32.1311 27.8468 32.1097 27.7836L32.0852 27.6304C31.9938 27.0643 31.7831 26.5247 31.4674 26.0482C31.1517 25.5717 30.7384 25.1695 30.2554 24.8688C29.5816 24.4488 28.7614 24.4 27.9697 24.4H24.5095C24.7163 28.6324 28.1738 32 32.4091 32Z" fill="#AAD9D1"/>
<path d="M24.5 23.6H27.9697C28.7614 23.6 29.5816 23.5512 30.2554 23.1312C30.7822 22.8029 31.2256 22.3544 31.5502 21.8216C31.9654 21.14 32.0136 20.3104 32.0136 19.5096V16H26.8727C26.2434 16 25.6399 16.2529 25.195 16.7029C24.75 17.153 24.5 17.7635 24.5 18.4V23.6ZM42.8708 16.8C42.8708 17.0122 42.7875 17.2157 42.6392 17.3657C42.4909 17.5157 42.2897 17.6 42.0799 17.6C41.8702 17.6 41.669 17.5157 41.5207 17.3657C41.3724 17.2157 41.289 17.0122 41.289 16.8C41.289 16.5878 41.3724 16.3843 41.5207 16.2343C41.669 16.0843 41.8702 16 42.0799 16C42.2897 16 42.4909 16.0843 42.6392 16.2343C42.7875 16.3843 42.8708 16.5878 42.8708 16.8ZM108.222 20.8416C110.433 20.8416 111.5 22.4036 111.5 24.2128V27.6108H109.186V24.616C109.186 23.796 108.89 23.1192 108.042 23.1192C107.194 23.1192 106.911 23.796 106.911 24.616V27.6104H104.597V24.616C104.597 23.796 104.315 23.1192 103.466 23.1192C102.618 23.1192 102.322 23.796 102.322 24.616V27.6104H100.008V24.2124C100.008 22.4032 101.075 20.8412 103.286 20.8412C104.495 20.8412 105.368 21.3228 105.767 22.1168C106.191 21.3228 107.117 20.8408 108.222 20.8408V20.8416ZM95.8507 25.528C96.5961 25.528 96.9176 24.838 96.9176 24.0176V21.1016H99.231V24.304C99.231 26.2176 98.1257 27.806 95.8507 27.806C93.5752 27.806 92.4699 26.218 92.4699 24.304V21.1016H94.7837V24.0176C94.7837 24.8376 95.1049 25.528 95.8507 25.528ZM89.0678 27.8188C87.6153 27.8188 86.6769 27.3112 86.1241 26.322L87.7953 25.3716C88.0266 25.788 88.3734 25.9964 88.952 25.9964C89.4277 25.9964 89.646 25.8272 89.646 25.6188C89.646 24.8248 86.2526 25.632 86.2526 23.1068C86.2526 21.8828 87.2808 20.8936 89.0291 20.8936C90.5587 20.8936 91.3943 21.6484 91.7672 22.3776L90.096 23.3408C89.9548 22.9504 89.5175 22.716 89.0805 22.716C88.7463 22.716 88.5664 22.8592 88.5664 23.0544C88.5664 23.8616 91.9598 23.1196 91.9598 25.5668C91.9598 26.9336 90.6358 27.8188 89.0678 27.8188ZM80.984 30.6048H78.6702V24.3432C78.6702 22.3512 80.1484 20.9064 82.2051 20.9064C84.2105 20.9064 85.7401 22.4556 85.7401 24.3432C85.7401 26.426 84.3774 27.806 82.3336 27.806C81.8579 27.806 81.3826 27.6628 80.984 27.4412V30.6048ZM82.2051 25.606C82.9379 25.606 83.4263 25.0332 83.4263 24.356C83.4263 23.6664 82.9379 23.1064 82.2051 23.1064C81.4723 23.1064 80.984 23.6664 80.984 24.3564C80.984 25.0332 81.4723 25.606 82.2051 25.606ZM76.3524 20.412C75.5939 20.412 74.9644 19.774 74.9644 19.006C74.9644 18.238 75.5939 17.6 76.3524 17.6C77.1109 17.6 77.7408 18.238 77.7408 19.006C77.7408 19.774 77.1109 20.412 76.3524 20.412ZM75.1957 21.1016H77.5095V27.6108H75.1957V21.1016ZM70.7563 27.806C68.751 27.806 67.2214 26.244 67.2214 24.3432C67.2214 22.4556 68.751 20.8936 70.7563 20.8936C72.7617 20.8936 74.2913 22.4556 74.2913 24.3432C74.2913 26.244 72.7617 27.806 70.7563 27.806ZM70.7563 25.606C71.4891 25.606 71.9775 25.0332 71.9775 24.356C71.9775 23.6664 71.4891 23.0936 70.7563 23.0936C70.0235 23.0936 69.5352 23.6664 69.5352 24.356C69.5352 25.0332 70.0235 25.606 70.7563 25.606ZM62.8524 30.8C61.2587 30.8 60.1016 30.084 59.5104 28.808L61.4256 27.7668C61.6312 28.2096 62.0168 28.6652 62.8136 28.6652C63.6496 28.6652 64.2021 28.1312 64.2665 27.194C63.9581 27.4676 63.4693 27.6756 62.7369 27.6756C60.9498 27.6756 59.51 26.2828 59.51 24.33C59.51 22.4428 61.04 20.9064 63.0454 20.9064C65.1021 20.9064 66.5803 22.3516 66.5803 24.3432V26.9208C66.5803 29.264 64.9732 30.8 62.8524 30.8ZM63.0066 25.476C63.7006 25.476 64.2278 24.994 64.2278 24.278C64.2278 23.5752 63.701 23.1064 63.0066 23.1064C62.3252 23.1064 61.7854 23.5752 61.7854 24.2784C61.7854 24.9944 62.3252 25.4756 63.0066 25.4756V25.476ZM55.5855 27.806C53.5801 27.806 52.0501 26.244 52.0501 24.3432C52.0501 22.4556 53.5801 20.8936 55.5855 20.8936C57.5905 20.8936 59.1205 22.4556 59.1205 24.3432C59.1205 26.244 57.5908 27.806 55.5855 27.806ZM55.5855 25.606C56.3183 25.606 56.8067 25.0332 56.8067 24.356C56.8067 23.6664 56.3183 23.0936 55.5855 23.0936C54.8527 23.0936 54.3643 23.6664 54.3643 24.356C54.3643 25.0332 54.8527 25.606 55.5855 25.606ZM47.837 18.824V25.3976H51.6677V27.6108H47.5155C46.0503 27.6108 45.4591 26.8296 45.4591 25.5928V18.824H47.837Z" fill="#AAD9D1"/>
</g>
<defs>
<clipPath id="clip0_4111_163">
<rect width="87" height="16" fill="white" transform="translate(24.5 16)"/>
</clipPath>
</defs>
</svg>
