<svg width="130" height="48" viewBox="0 0 130 48" fill="none" xmlns="http://www.w3.org/2000/svg">
<g clip-path="url(#clip0_4111_202)">
<path fill-rule="evenodd" clip-rule="evenodd" d="M35.1223 20.6741C34.4645 20.2346 33.6911 20 32.9 20V16C34.4823 16 36.029 16.4692 37.3446 17.3482C38.6602 18.2273 39.6855 19.4767 40.2911 20.9385C40.8965 22.4003 41.055 24.0089 40.7463 25.5607C40.4376 27.1126 39.6757 28.538 38.5569 29.6568C37.4381 30.7757 36.0126 31.5376 34.4607 31.8463C32.9089 32.155 31.3003 31.9965 29.8385 31.391C28.3767 30.7855 27.1273 29.7602 26.2483 28.4446C25.3692 27.129 24.9 25.5822 24.9 24H28.9C28.9 24.7911 29.1346 25.5645 29.5741 26.2223C30.0137 26.8801 30.6384 27.3928 31.3693 27.6955C32.1002 27.9983 32.9045 28.0775 33.6804 27.9231C34.4563 27.7688 35.169 27.3878 35.7285 26.8284C36.2879 26.269 36.6688 25.5563 36.8231 24.7804C36.9775 24.0044 36.8983 23.2002 36.5955 22.4693C36.2928 21.7384 35.7801 21.1136 35.1223 20.6741Z" fill="#AAD9D1"/>
<path fill-rule="evenodd" clip-rule="evenodd" d="M28.9 16C28.9 16.5253 28.7966 17.0454 28.5955 17.5307C28.3945 18.016 28.0999 18.457 27.7285 18.8284C27.357 19.1999 26.9161 19.4945 26.4308 19.6955C25.9455 19.8965 25.4253 20 24.9 20L24.9 24C25.9506 24 26.9909 23.7931 27.9615 23.391C28.9321 22.989 29.814 22.3997 30.5569 21.6568C31.2997 20.914 31.889 20.0321 32.2911 19.0615C32.6931 18.0909 32.9 17.0506 32.9 16L28.9 16Z" fill="#AAD9D1"/>
<path d="M75.1476 21.781H73.2068V27.9459H75.1476V21.781Z" fill="#AAD9D1"/>
<path d="M73.4229 20.6267C73.6257 20.8296 73.8793 20.9311 74.1837 20.9311C74.4881 20.9311 74.7377 20.8296 74.9321 20.6267C75.1269 20.4153 75.2241 20.1616 75.2241 19.8656C75.2241 19.5612 75.1269 19.3074 74.9321 19.1045C74.7377 18.9015 74.4881 18.8 74.1837 18.8C73.8793 18.8 73.6257 18.9015 73.4229 19.1045C73.2281 19.3074 73.1309 19.5612 73.1309 19.8656C73.1309 20.1616 73.2281 20.4153 73.4229 20.6267Z" fill="#AAD9D1"/>
<path d="M45.3625 27.9459V18.9902H47.3541V26.1954H51.3246V27.9459H45.3625Z" fill="#AAD9D1"/>
<path fill-rule="evenodd" clip-rule="evenodd" d="M54.9109 28.0855C54.2767 28.0855 53.7017 27.946 53.1858 27.6669C52.6784 27.3794 52.2767 26.9904 51.9807 26.4998C51.6847 26.0094 51.5367 25.4597 51.5367 24.8508C51.5367 24.2419 51.6847 23.6965 51.9807 23.2144C52.2767 22.7324 52.6784 22.3518 53.1858 22.0728C53.6932 21.7852 54.2683 21.6415 54.9109 21.6415C55.5537 21.6415 56.1287 21.781 56.6361 22.0601C57.1435 22.3392 57.5452 22.724 57.8412 23.2144C58.1372 23.6965 58.2852 24.2419 58.2852 24.8508C58.2852 25.4597 58.1372 26.0094 57.8412 26.4998C57.5452 26.9904 57.1435 27.3794 56.6361 27.6669C56.1287 27.946 55.5537 28.0855 54.9109 28.0855ZM54.9109 26.3223C55.19 26.3223 55.4353 26.2631 55.6467 26.1447C55.8581 26.0178 56.0188 25.8445 56.1287 25.6246C56.2471 25.3963 56.3063 25.1383 56.3063 24.8508C56.3063 24.5633 56.2471 24.3138 56.1287 24.1024C56.0103 23.8825 55.8454 23.7134 55.634 23.595C55.431 23.4681 55.19 23.4047 54.9109 23.4047C54.6403 23.4047 54.3993 23.4681 54.1879 23.595C53.9765 23.7134 53.8116 23.8825 53.6932 24.1024C53.5748 24.3223 53.5156 24.576 53.5156 24.8635C53.5156 25.1426 53.5748 25.3963 53.6932 25.6246C53.8116 25.8445 53.9765 26.0178 54.1879 26.1447C54.3993 26.2631 54.6403 26.3223 54.9109 26.3223Z" fill="#AAD9D1"/>
<path fill-rule="evenodd" clip-rule="evenodd" d="M59.8224 30.3561C60.3382 30.5929 60.9344 30.7113 61.611 30.7113C62.2706 30.7113 62.8583 30.5802 63.3742 30.3181C63.89 30.0559 64.2959 29.6923 64.5919 29.2272C64.8879 28.7621 65.0361 28.2124 65.0361 27.5781V21.7811H63.1331V22.1953C62.9916 22.0761 62.8309 21.9761 62.6511 21.8952C62.3213 21.7345 61.945 21.6542 61.5222 21.6542C60.9556 21.6542 60.4524 21.7895 60.0126 22.0601C59.5728 22.3223 59.2262 22.6859 58.9724 23.151C58.7187 23.6077 58.5919 24.1235 58.5919 24.6986C58.5919 25.2652 58.7187 25.7811 58.9724 26.2462C59.2262 26.7113 59.5728 27.0792 60.0126 27.3498C60.4524 27.6204 60.9556 27.7557 61.5222 27.7557C61.9365 27.7557 62.3128 27.6754 62.6511 27.5147C62.815 27.4369 62.963 27.3451 63.0951 27.2395V27.6289C63.0951 28.0601 62.9556 28.3942 62.6765 28.631C62.4059 28.8678 62.0296 28.9861 61.5475 28.9861C61.1585 28.9861 60.8245 28.9185 60.5454 28.7832C60.2748 28.6479 60.0295 28.4491 59.8096 28.187L58.6173 29.3794C58.9132 29.8022 59.315 30.1278 59.8224 30.3561ZM62.5877 25.8529C62.3932 25.9713 62.1606 26.0305 61.89 26.0305C61.6194 26.0305 61.3826 25.9713 61.1796 25.8529C60.9851 25.7345 60.8329 25.5739 60.723 25.3709C60.613 25.1595 60.5581 24.9354 60.5581 24.6986C60.5581 24.4449 60.613 24.2166 60.723 24.0136C60.8329 23.8107 60.9894 23.65 61.1923 23.5316C61.3953 23.4132 61.6278 23.354 61.89 23.354C62.1606 23.354 62.3932 23.4132 62.5877 23.5316C62.7906 23.65 62.9428 23.8107 63.0444 24.0136C63.1543 24.2166 63.2092 24.4449 63.2092 24.6986C63.2092 24.9523 63.1543 25.1806 63.0444 25.3836C62.9428 25.5781 62.7906 25.7345 62.5877 25.8529Z" fill="#AAD9D1"/>
<path fill-rule="evenodd" clip-rule="evenodd" d="M69.1204 28.0855C68.486 28.0855 67.9108 27.946 67.3952 27.6669C66.8876 27.3794 66.486 26.9904 66.19 26.4998C65.894 26.0094 65.746 25.4597 65.746 24.8508C65.746 24.2419 65.894 23.6965 66.19 23.2144C66.486 22.7324 66.8876 22.3518 67.3952 22.0728C67.9024 21.7852 68.4776 21.6415 69.1204 21.6415C69.7628 21.6415 70.338 21.781 70.8452 22.0601C71.3528 22.3392 71.7544 22.724 72.0504 23.2144C72.3464 23.6965 72.4944 24.2419 72.4944 24.8508C72.4944 25.4597 72.3464 26.0094 72.0504 26.4998C71.7544 26.9904 71.3528 27.3794 70.8452 27.6669C70.338 27.946 69.7628 28.0855 69.1204 28.0855ZM69.1204 26.3223C69.3992 26.3223 69.6444 26.2631 69.856 26.1447C70.0672 26.0178 70.228 25.8445 70.338 25.6246C70.4564 25.3963 70.5156 25.1383 70.5156 24.8508C70.5156 24.5633 70.4564 24.3138 70.338 24.1024C70.2196 23.8825 70.0548 23.7134 69.8432 23.595C69.6404 23.4681 69.3992 23.4047 69.1204 23.4047C68.8496 23.4047 68.6084 23.4681 68.3972 23.595C68.1856 23.7134 68.0208 23.8825 67.9024 24.1024C67.784 24.3223 67.7248 24.576 67.7248 24.8635C67.7248 25.1426 67.784 25.3963 67.9024 25.6246C68.0208 25.8445 68.1856 26.0178 68.3972 26.1447C68.6084 26.2631 68.8496 26.3223 69.1204 26.3223Z" fill="#AAD9D1"/>
<path fill-rule="evenodd" clip-rule="evenodd" d="M79.8125 28.0728C79.3985 28.0728 79.0177 27.9925 78.6709 27.8318C78.4885 27.7473 78.3237 27.6463 78.1765 27.5289V30.5464H76.2609V21.7811H78.2017V22.2065C78.3425 22.0914 78.4989 21.9918 78.6709 21.9079C79.0177 21.7387 79.3985 21.6542 79.8125 21.6542C80.3961 21.6542 80.9121 21.7937 81.3601 22.0728C81.8169 22.3519 82.1721 22.7324 82.4257 23.2145C82.6881 23.6965 82.8189 24.2462 82.8189 24.8635C82.8189 25.4809 82.6881 26.0305 82.4257 26.5126C82.1721 26.9946 81.8169 27.3751 81.3601 27.6542C80.9121 27.9333 80.3961 28.0728 79.8125 28.0728ZM79.4577 26.3223C79.7365 26.3223 79.9777 26.2589 80.1805 26.132C80.3921 26.0052 80.5569 25.8318 80.6753 25.6119C80.7937 25.3921 80.8529 25.1426 80.8529 24.8635C80.8529 24.576 80.7937 24.3223 80.6753 24.1024C80.5569 23.8825 80.3921 23.7134 80.1805 23.595C79.9777 23.4681 79.7409 23.4047 79.4701 23.4047C79.1997 23.4047 78.9585 23.4681 78.7473 23.595C78.5441 23.7134 78.3837 23.8825 78.2653 24.1024C78.1469 24.3223 78.0877 24.576 78.0877 24.8635C78.0877 25.1426 78.1425 25.3921 78.2525 25.6119C78.3709 25.8318 78.5357 26.0052 78.7473 26.132C78.9585 26.2589 79.1953 26.3223 79.4577 26.3223Z" fill="#AAD9D1"/>
<path d="M84.7185 27.9586C85.0737 28.0516 85.4329 28.0981 85.7965 28.0981C86.5661 28.0981 87.1749 27.9206 87.6233 27.5654C88.0797 27.2102 88.3081 26.7324 88.3081 26.132C88.3081 25.743 88.2365 25.43 88.0925 25.1933C87.9489 24.948 87.7629 24.7535 87.5345 24.6098C87.3061 24.466 87.0649 24.3518 86.8113 24.2672C86.5577 24.1827 86.3165 24.1108 86.0885 24.0516C85.8601 23.9924 85.6741 23.9248 85.5301 23.8486C85.3865 23.7725 85.3145 23.671 85.3145 23.5442C85.3145 23.4258 85.3697 23.337 85.4793 23.2778C85.5893 23.2102 85.7541 23.1764 85.9741 23.1764C86.2025 23.1764 86.4349 23.2228 86.6717 23.3159C86.9169 23.4089 87.1369 23.5696 87.3313 23.7979L88.4349 22.6816C88.1561 22.3264 87.7925 22.06 87.3441 21.8825C86.9045 21.6964 86.4225 21.6034 85.8981 21.6034C85.3993 21.6034 84.9637 21.688 84.5917 21.8571C84.2193 22.0262 83.9317 22.2588 83.7289 22.5548C83.5261 22.8423 83.4245 23.1848 83.4245 23.5823C83.4245 23.9544 83.4965 24.263 83.6401 24.5083C83.7837 24.745 83.9701 24.9311 84.1981 25.0664C84.4265 25.2017 84.6677 25.3074 84.9213 25.3835C85.1749 25.4596 85.4161 25.5315 85.6445 25.5992C85.8725 25.6584 86.0589 25.7303 86.2025 25.8148C86.3549 25.891 86.4309 26.0051 86.4309 26.1573C86.4309 26.2757 86.3673 26.3687 86.2405 26.4364C86.1221 26.504 85.9489 26.5379 85.7205 26.5379C85.3905 26.5379 85.0861 26.4787 84.8073 26.3603C84.5281 26.2334 84.2869 26.0601 84.0841 25.8402L82.9805 26.9565C83.1921 27.1848 83.4457 27.3878 83.7417 27.5654C84.0461 27.7345 84.3717 27.8656 84.7185 27.9586Z" fill="#AAD9D1"/>
<path d="M91.8472 28.0854C91.2808 28.0854 90.7776 27.9713 90.338 27.743C89.9064 27.5062 89.5684 27.1848 89.3232 26.7789C89.0776 26.3645 88.9552 25.891 88.9552 25.3582V21.781H90.896V25.3328C90.896 25.5442 90.9296 25.726 90.9976 25.8782C91.0736 26.0305 91.1836 26.1489 91.3272 26.2334C91.4712 26.318 91.6444 26.3603 91.8472 26.3603C92.1348 26.3603 92.3632 26.2715 92.5324 26.0939C92.7016 25.9078 92.786 25.6542 92.786 25.3328V21.781H94.7268V25.3455C94.7268 25.8867 94.6044 26.3645 94.3588 26.7789C94.1136 27.1848 93.7756 27.5062 93.344 27.743C92.9128 27.9713 92.414 28.0854 91.8472 28.0854Z" fill="#AAD9D1"/>
<path d="M97.6324 21.7811H95.6917V27.946H97.6324V24.3434C97.6324 24.132 97.6748 23.9544 97.7592 23.8107C97.8524 23.6669 97.9752 23.5569 98.1272 23.4809C98.2796 23.3963 98.4528 23.354 98.6472 23.354C98.9264 23.354 99.1588 23.4428 99.3448 23.6204C99.5396 23.7895 99.6368 24.0305 99.6368 24.3434V27.946H101.578V24.3434C101.578 24.132 101.62 23.9544 101.704 23.8107C101.798 23.6669 101.92 23.5569 102.072 23.4809C102.224 23.3963 102.398 23.354 102.592 23.354C102.872 23.354 103.104 23.4428 103.29 23.6204C103.484 23.7895 103.582 24.0305 103.582 24.3434V27.946H105.523V24.1278C105.523 23.6119 105.413 23.1722 105.193 22.8085C104.981 22.4364 104.69 22.1531 104.318 21.9587C103.954 21.7557 103.535 21.6542 103.062 21.6542C102.58 21.6542 102.144 21.7599 101.755 21.9713C101.502 22.106 101.282 22.2799 101.092 22.4928C100.916 22.2701 100.702 22.0878 100.448 21.9459C100.11 21.7515 99.7256 21.6542 99.2944 21.6542C98.8376 21.6542 98.4277 21.7515 98.0641 21.9459C97.9057 22.0269 97.762 22.1238 97.6324 22.2367V21.7811Z" fill="#AAD9D1"/>
</g>
<defs>
<clipPath id="clip0_4111_202">
<rect width="80.8" height="16" fill="white" transform="translate(24.9 16)"/>
</clipPath>
</defs>
</svg>
